<?xml version="1.0" standalone="no"?>
<!DOCTYPE svg PUBLIC "-//W3C//DTD SVG 20010904//EN"
 "http://www.w3.org/TR/2001/REC-SVG-20010904/DTD/svg10.dtd">
<svg version="1.0" xmlns="http://www.w3.org/2000/svg"
 width="4382.000000pt" height="1080.000000pt" viewBox="0 0 4382.000000 1080.000000"
 preserveAspectRatio="xMidYMid meet">

<g transform="translate(0.000000,1080.000000) scale(0.100000,-0.100000)"
fill="#000000" stroke="none">
<path d="M9237 10790 c-95 -24 -192 -104 -237 -195 -21 -43 -25 -64 -25 -150
0 -85 4 -107 24 -147 37 -75 95 -134 169 -170 59 -30 76 -33 152 -33 76 0 93
3 152 33 74 36 132 95 169 170 20 40 24 63 24 147 0 95 -2 103 -34 163 -62
114 -163 180 -288 187 -37 2 -85 0 -106 -5z m251 -172 c19 -19 16 -207 -4
-229 -15 -16 -13 -20 25 -54 23 -21 41 -46 41 -56 0 -18 -11 -19 -225 -19
-261 0 -267 2 -196 74 32 33 39 44 29 54 -18 18 -19 210 0 228 18 19 312 20
330 2z"/>
<path d="M9181 10602 c-7 -2 -11 -40 -11 -103 l0 -100 153 3 152 3 0 100 0
100 -142 0 c-78 0 -146 -1 -152 -3z"/>
<path d="M9170 10345 c-11 -13 7 -15 150 -15 143 0 161 2 150 15 -10 12 -40
15 -150 15 -110 0 -140 -3 -150 -15z"/>
<path d="M9266 10305 c-4 -12 5 -15 54 -15 49 0 58 3 54 15 -4 10 -21 15 -54
15 -33 0 -50 -5 -54 -15z"/>
<path d="M8725 10379 c-1038 -281 -3425 -958 -3425 -973 0 -14 34 -96 39 -96
7 0 3406 953 3504 982 39 12 41 17 31 81 -8 45 -6 45 -149 6z"/>
<path d="M9126 10002 c-17 -33 -130 -352 -241 -682 -46 -135 -135 -391 -197
-570 -63 -179 -118 -337 -121 -352 -7 -25 -4 -27 44 -43 28 -10 54 -13 59 -9
9 10 570 1622 570 1639 0 6 -23 18 -50 27 l-50 16 -14 -26z"/>
<path d="M4826 9578 c-80 -10 -141 -42 -203 -104 -67 -69 -96 -141 -96 -245
-1 -64 4 -85 30 -141 37 -79 98 -142 173 -177 47 -22 69 -26 145 -26 76 0 99
4 146 26 78 37 133 90 170 165 126 256 -80 539 -365 502z m207 -169 c15 -8 17
-25 17 -117 0 -71 -4 -112 -12 -120 -9 -9 -3 -22 31 -56 24 -24 40 -49 37 -55
-5 -7 -80 -11 -231 -11 -151 0 -226 4 -231 11 -3 6 13 31 37 55 34 34 40 47
31 56 -8 8 -12 49 -12 120 0 91 3 108 18 117 22 12 291 12 315 0z"/>
<path d="M4730 9392 c-6 -2 -10 -46 -10 -103 l0 -99 155 0 155 0 0 100 c0 55
-3 100 -7 101 -22 3 -285 3 -293 1z"/>
<path d="M4727 9144 c-20 -20 6 -24 149 -24 120 0 155 3 152 13 -3 9 -45 13
-149 15 -80 1 -148 -1 -152 -4z"/>
<path d="M4827 9104 c-4 -4 -7 -14 -7 -21 0 -11 14 -13 55 -12 45 2 55 6 53
18 -2 11 -17 17 -48 19 -25 2 -49 0 -53 -4z"/>
<path d="M5288 9035 c-14 -28 -18 -48 -12 -54 20 -19 552 -295 1544 -802 612
-312 609 -311 619 -305 9 6 45 96 40 101 -7 6 -757 394 -1204 622 -869 445
-945 483 -955 483 -6 0 -20 -20 -32 -45z"/>
<path d="M4435 8902 c-33 -31 -162 -140 -285 -242 -216 -178 -700 -588 -749
-635 l-24 -23 29 -38 c15 -22 29 -40 30 -42 8 -12 139 91 405 319 207 178 531
451 589 498 68 55 150 133 150 143 0 8 -70 78 -79 78 -3 0 -33 -26 -66 -58z"/>
<path d="M4816 8748 c-4 -26 -117 -2349 -116 -2380 0 -11 120 -10 120 0 0 5
25 532 55 1173 30 640 55 1181 55 1202 l0 37 -55 0 c-53 0 -54 0 -59 -32z"/>
<path d="M14446 8460 c-661 -59 -1158 -418 -1476 -1065 -195 -396 -292 -826
-320 -1419 -33 -688 69 -1354 278 -1821 291 -653 774 -1024 1452 -1116 140
-19 469 -17 610 5 718 109 1194 548 1453 1341 32 97 87 305 81 305 -2 0 -117
25 -255 56 -137 30 -255 54 -261 52 -6 -2 -22 -51 -34 -109 -56 -251 -165
-507 -285 -670 -78 -106 -206 -232 -297 -293 -269 -178 -604 -241 -959 -180
-464 80 -812 403 -1015 944 -174 462 -233 1202 -148 1867 70 547 242 967 510
1246 172 179 354 284 590 338 111 26 366 36 481 20 447 -64 789 -383 967 -901
21 -63 49 -157 62 -207 12 -51 26 -93 31 -93 13 0 513 131 518 136 7 6 -59
252 -96 357 -113 328 -266 574 -479 776 -242 229 -538 364 -907 416 -134 19
-377 26 -501 15z"/>
<path d="M332 8369 c-207 -27 -366 -246 -324 -446 27 -130 106 -232 222 -287
58 -28 75 -31 160 -31 88 0 101 3 162 33 85 42 168 129 198 209 26 67 31 183
12 248 -54 183 -236 299 -430 274z m226 -220 c5 -11 7 -63 7 -116 -1 -70 -5
-97 -16 -103 -11 -7 -5 -18 29 -52 52 -54 53 -68 5 -69 -185 -4 -416 0 -424 8
-5 5 8 28 36 58 35 40 41 51 30 58 -12 6 -15 30 -15 107 0 54 3 105 6 114 5
14 30 16 170 16 158 0 165 -1 172 -21z"/>
<path d="M237 8143 c-4 -3 -7 -48 -7 -100 l0 -93 155 0 155 0 0 100 0 100
-148 0 c-82 0 -152 -3 -155 -7z"/>
<path d="M240 7895 c-11 -13 7 -15 150 -15 143 0 161 2 150 15 -10 12 -40 15
-150 15 -110 0 -140 -3 -150 -15z"/>
<path d="M342 7854 c-26 -19 -10 -25 52 -22 44 2 54 6 47 17 -11 18 -77 21
-99 5z"/>
<path d="M16950 5746 l0 -2636 285 0 c183 0 285 4 286 10 1 6 2 542 3 1193 l1
1182 680 2 680 3 579 -1195 579 -1195 318 0 318 0 -63 133 c-35 72 -310 634
-610 1247 -301 613 -548 1123 -549 1132 -2 14 20 26 103 54 130 44 320 136
422 204 43 28 117 88 165 133 263 249 386 558 385 977 0 778 -405 1192 -1304
1335 -285 45 -363 48 -1340 52 l-938 5 0 -2636z m1876 2134 c687 -54 964 -210
1079 -604 37 -128 52 -309 37 -450 -15 -141 -34 -211 -82 -311 -116 -239 -344
-387 -715 -464 -244 -50 -303 -53 -980 -58 l-640 -5 1 949 c1 521 2 949 3 951
4 7 1190 0 1297 -8z"/>
<path d="M20950 5745 l0 -2635 1640 0 1640 0 12 43 c6 23 110 391 232 817
l221 775 982 3 c928 2 982 1 987 -15 19 -62 466 -1614 466 -1618 0 -3 137 -5
305 -5 l305 0 -5 23 c-3 12 -367 1197 -808 2632 l-802 2610 -444 0 -444 0
-735 -2382 -735 -2383 -1119 0 -1118 0 0 1010 0 1010 895 0 895 0 0 245 0 245
-895 0 -895 0 2 883 3 882 1263 3 1262 2 0 245 0 245 -1555 0 -1555 0 0 -2635z
m5155 870 l392 -1370 -825 -3 c-454 -1 -827 0 -830 3 -3 3 758 2660 783 2733
3 9 19 12 46 10 l42 -3 392 -1370z"/>
<path d="M26420 8130 l0 -250 768 -2 767 -3 3 -2382 2 -2383 295 0 295 0 0
2385 0 2385 770 0 770 0 0 250 0 250 -1835 0 -1835 0 0 -250z"/>
<path d="M30440 5745 l0 -2635 295 0 295 0 0 2635 0 2635 -295 0 -295 0 0
-2635z"/>
<path d="M31190 8375 c0 -3 365 -1089 811 -2413 446 -1324 845 -2507 886
-2630 l75 -222 256 2 257 3 892 2620 c491 1441 892 2626 892 2633 1 10 -60 12
-290 10 l-291 -3 -217 -645 c-120 -355 -441 -1314 -715 -2132 -473 -1412 -500
-1488 -522 -1488 -22 0 -58 104 -732 2133 l-708 2132 -297 3 c-163 1 -297 0
-297 -3z"/>
<path d="M35490 5745 l0 -2635 1615 0 1615 0 0 250 0 250 -1325 0 -1325 0 0
1010 0 1010 895 0 895 0 0 245 0 245 -895 0 -895 0 2 883 3 882 1263 3 1262 2
0 245 0 245 -1555 0 -1555 0 0 -2635z"/>
<path d="M39830 5745 l0 -2635 295 0 295 0 0 2385 0 2385 633 -2 632 -3 1
-2372 c1 -1305 2 -2377 3 -2383 1 -6 107 -10 296 -10 l295 0 0 2385 0 2385
770 0 770 0 0 250 0 250 -1995 0 -1995 0 0 -2635z"/>
<path d="M8128 8360 c-88 -16 -163 -42 -253 -88 -71 -37 -109 -65 -181 -137
-50 -49 -107 -117 -126 -150 -197 -340 -143 -738 135 -1002 168 -160 374 -234
607 -220 196 12 365 90 511 236 256 256 310 617 141 946 -37 73 -64 108 -142
185 -77 78 -112 105 -185 142 -50 26 -124 56 -165 68 -84 24 -265 34 -342 20z
m499 -470 c49 -29 55 -65 51 -313 l-3 -219 -33 -29 c-32 -29 -33 -29 -160 -29
-71 0 -131 -3 -135 -6 -3 -4 0 -19 8 -35 13 -24 21 -28 67 -31 45 -3 53 -6 53
-23 0 -19 -8 -20 -222 -23 l-223 -2 0 25 c0 23 3 25 49 25 40 0 53 4 65 22 32
45 25 48 -120 48 l-136 0 -29 29 -29 29 0 240 c0 229 1 240 21 266 12 15 31
32 43 36 11 5 174 9 361 9 320 1 342 0 372 -19z"/>
<path d="M7895 7826 c-14 -21 -16 -56 -13 -236 3 -196 4 -213 22 -226 31 -22
662 -21 694 2 22 15 22 19 22 230 0 129 -4 223 -10 235 -10 18 -25 19 -355 19
l-345 0 -15 -24z"/>
<path d="M8216 7271 c-9 -16 -12 -31 -9 -35 8 -7 93 -8 93 -1 0 4 -7 19 -15
35 -20 39 -50 39 -69 1z"/>
<path d="M2856 8039 c-83 -14 -148 -39 -218 -85 -269 -179 -306 -565 -78 -794
106 -106 220 -153 370 -153 76 0 109 5 167 25 212 75 352 270 353 490 1 251
-182 470 -428 514 -86 15 -96 15 -166 3z m222 -221 c19 -19 17 -571 -2 -587
-9 -8 -60 -11 -157 -9 l-144 3 -3 294 c-2 229 1 296 10 303 21 13 282 10 296
-4z"/>
<path d="M2800 7810 c0 -5 5 -10 10 -10 6 0 10 5 10 10 0 6 -4 10 -10 10 -5 0
-10 -4 -10 -10z"/>
<path d="M2913 7803 c9 -2 25 -2 35 0 9 3 1 5 -18 5 -19 0 -27 -2 -17 -5z"/>
<path d="M2780 7525 l0 -235 150 0 150 0 0 235 0 235 -150 0 -150 0 0 -235z"/>
<path d="M2901 7271 c-21 -13 -4 -31 30 -31 24 0 30 4 27 18 -4 19 -36 27 -57
13z"/>
<path d="M841 7923 c-20 -73 -13 -79 105 -97 49 -8 323 -57 609 -109 566 -104
725 -131 730 -126 2 2 6 29 10 61 l7 56 -53 11 c-30 5 -94 15 -143 21 -87 11
-302 49 -921 164 -164 31 -307 56 -317 56 -11 0 -21 -13 -27 -37z"/>
<path d="M524 7551 l-41 -16 504 -1430 c278 -786 508 -1433 512 -1438 4 -4 31
0 59 8 63 19 64 -1 -23 245 -34 96 -68 193 -75 215 -7 22 -58 162 -113 310
-54 149 -170 475 -257 725 -87 250 -189 543 -228 650 -39 107 -112 311 -161
453 -50 142 -96 267 -101 278 -13 22 -21 22 -76 0z"/>
<path d="M7359 6982 c-275 -175 -1648 -1079 -1668 -1098 -6 -6 30 -83 45 -95
15 -12 -37 -45 829 527 308 204 655 432 770 508 116 75 221 145 234 155 l24
19 -32 41 c-18 22 -36 41 -40 41 -5 0 -77 -44 -162 -98z"/>
<path d="M3302 7000 l-42 -28 49 -74 c27 -40 103 -138 168 -218 65 -80 157
-194 203 -255 147 -192 281 -356 295 -362 16 -5 85 43 85 60 0 16 -77 118
-291 388 -107 134 -234 294 -281 354 -47 61 -99 122 -115 137 l-28 27 -43 -29z"/>
<path d="M2476 6633 c-59 -186 -174 -545 -256 -798 -167 -519 -360 -1127 -360
-1135 0 -3 20 -16 45 -30 33 -18 48 -21 56 -13 6 6 78 220 159 475 144 450
292 913 431 1343 37 116 83 263 102 328 l35 118 -49 24 c-26 14 -50 25 -52 25
-2 0 -52 -152 -111 -337z"/>
<path d="M7962 6118 c-46 -326 -83 -601 -82 -610 0 -15 9 -18 55 -18 30 0 55
3 55 6 0 17 152 1066 161 1115 15 79 4 99 -59 99 l-47 0 -83 -592z"/>
<path d="M4573 6235 c-321 -58 -595 -266 -738 -560 -84 -172 -100 -244 -99
-455 0 -146 4 -188 22 -252 53 -194 136 -335 282 -478 146 -144 322 -238 519
-277 102 -20 295 -19 395 2 425 89 739 413 815 839 16 86 13 261 -4 353 -81
427 -410 754 -834 828 -101 18 -260 18 -358 0z m682 -447 c53 -24 55 -40 55
-388 l0 -322 -29 -29 c-16 -16 -37 -29 -45 -29 -9 0 -16 -4 -16 -8 0 -5 63
-71 139 -147 l140 -138 -13 -31 c-7 -17 -23 -37 -37 -43 -18 -10 -181 -13
-687 -13 -730 0 -719 -1 -740 59 -11 31 -10 32 128 171 l140 140 -30 15 c-60
31 -60 29 -60 380 1 342 2 354 51 381 33 18 964 20 1004 2z"/>
<path d="M4282 5718 c-9 -9 -12 -90 -12 -304 0 -161 3 -299 6 -308 5 -14 57
-16 479 -16 422 0 474 2 479 16 3 9 6 147 6 308 0 214 -3 295 -12 304 -17 17
-929 17 -946 0z"/>
<path d="M4292 4927 c-23 -23 -42 -46 -42 -50 0 -4 227 -7 505 -7 278 0 505 4
505 8 0 4 -19 27 -43 50 l-43 42 -420 0 -420 0 -42 -43z"/>
<path d="M4592 4785 c-12 -25 -22 -48 -22 -50 0 -3 83 -5 185 -5 102 0 185 2
185 5 0 2 -10 25 -22 50 l-22 45 -141 0 -141 0 -22 -45z"/>
<path d="M7733 5390 c-170 -31 -322 -146 -397 -303 -44 -93 -60 -177 -53 -276
15 -194 129 -363 302 -446 273 -130 589 -24 722 242 177 352 -56 760 -447 787
-41 3 -98 1 -127 -4z m436 -256 l31 -26 0 -217 c0 -218 0 -218 -25 -245 -23
-25 -27 -26 -145 -26 -124 0 -130 -2 -110 -41 8 -14 21 -19 48 -19 41 0 63
-15 55 -36 -7 -19 -389 -21 -396 -1 -9 26 6 37 49 37 33 0 46 5 54 19 20 39
14 41 -110 41 -115 0 -122 1 -145 25 l-25 24 0 220 0 219 31 26 31 26 313 0
313 0 31 -26z"/>
<path d="M7512 5098 c-9 -9 -12 -69 -12 -209 0 -182 1 -199 19 -211 14 -10 85
-13 312 -13 162 1 300 4 307 8 17 11 17 408 0 425 -17 17 -609 17 -626 0z"/>
<path d="M7796 4598 c-24 -33 -20 -38 29 -38 25 0 45 3 45 8 0 15 -32 52 -45
52 -8 0 -21 -10 -29 -22z"/>
<path d="M5874 5047 c-3 -8 -6 -33 -7 -57 l-2 -44 640 -63 c352 -34 648 -62
658 -63 16 0 18 8 15 58 l-3 57 -115 12 c-136 15 -1158 113 -1171 113 -5 0
-12 -6 -15 -13z"/>
<path d="M3300 4841 c-633 -223 -1127 -404 -1143 -420 -12 -12 13 -101 28
-101 22 0 1073 372 1358 480 135 52 138 54 132 79 -9 39 -27 81 -34 81 -3 -1
-157 -54 -341 -119z"/>
<path d="M1592 4620 c-322 -118 -347 -552 -41 -712 61 -31 70 -33 169 -33 96
0 110 3 165 29 80 39 149 111 188 194 28 60 31 77 31 158 1 85 -2 96 -37 167
-43 86 -98 141 -185 184 -75 37 -210 43 -290 13z m286 -242 c16 -16 16 -200 0
-216 -7 -7 -36 -12 -65 -12 -40 0 -53 -4 -53 -15 0 -9 9 -15 25 -15 14 0 25
-4 25 -10 0 -6 -37 -10 -90 -10 -53 0 -90 4 -90 10 0 6 11 10 25 10 16 0 25 6
25 15 0 11 -13 15 -53 15 -29 0 -58 5 -65 12 -8 8 -12 47 -12 108 0 61 4 100
12 108 8 8 58 12 158 12 100 0 150 -4 158 -12z"/>
<path d="M1574 4357 c-3 -8 -4 -52 -2 -98 l3 -84 145 0 145 0 0 95 0 95 -143
3 c-113 2 -143 0 -148 -11z"/>
<path d="M1707 4144 c-13 -13 -7 -24 14 -24 11 0 19 5 17 12 -5 14 -22 21 -31
12z"/>
<path d="M8148 4298 c-21 -12 -38 -27 -38 -32 0 -6 25 -45 55 -86 84 -117 575
-773 590 -789 11 -12 18 -11 46 5 56 33 58 46 14 111 -22 31 -154 211 -294
398 -140 187 -265 357 -279 378 -28 43 -43 45 -94 15z"/>
<path d="M4100 4253 c-11 -14 -20 -29 -20 -34 0 -4 -121 -281 -270 -615 -148
-333 -270 -610 -270 -615 0 -15 89 -54 99 -43 17 18 320 689 483 1069 l90 210
-28 22 c-42 33 -61 34 -84 6z"/>
<path d="M5140 4160 c-56 -15 -70 -23 -70 -40 0 -31 250 -878 347 -1176 l36
-111 40 9 c22 5 46 12 52 16 8 5 -43 191 -179 654 -105 356 -193 649 -196 651
-3 2 -16 0 -30 -3z"/>
<path d="M2008 3907 l-38 -32 36 -45 c19 -25 205 -220 412 -435 207 -214 419
-434 471 -487 52 -54 99 -98 106 -98 6 0 25 15 43 33 31 32 31 34 15 57 -9 14
-73 84 -142 156 -69 71 -186 195 -260 275 -178 190 -589 609 -599 609 -4 -1
-24 -15 -44 -33z"/>
<path d="M1532 3728 c-11 -57 -62 -303 -112 -548 -167 -816 -180 -883 -180
-906 0 -19 7 -24 53 -31 28 -5 53 -9 55 -8 3 2 312 1545 312 1557 0 10 -67 38
-90 38 -14 0 -21 -20 -38 -102z"/>
<path d="M8942 3411 c-107 -40 -184 -109 -230 -209 -24 -51 -27 -69 -27 -167
0 -104 2 -113 32 -171 86 -165 260 -249 432 -210 127 28 221 102 275 216 29
60 31 73 31 170 0 93 -3 112 -27 162 -38 81 -108 152 -187 190 -86 42 -215 50
-299 19z"/>
<path d="M8350 2895 c-129 -29 -455 -101 -725 -160 -269 -59 -683 -149 -920
-201 -236 -52 -434 -94 -439 -94 -8 0 0 -95 9 -110 2 -4 102 15 222 41 120 26
520 113 888 194 369 81 803 176 965 211 162 35 298 65 301 67 3 1 -1 26 -9 55
-12 42 -18 52 -36 51 -11 0 -127 -25 -256 -54z"/>
<path d="M3275 2927 c-115 -39 -198 -109 -245 -208 -90 -191 -11 -418 178
-511 57 -28 79 -34 154 -36 62 -3 101 1 136 12 162 54 265 199 265 371 0 108
-27 177 -100 255 -77 84 -155 121 -265 126 -53 3 -98 -1 -123 -9z m260 -241
c16 -12 19 -28 21 -111 3 -119 -8 -135 -87 -135 -36 0 -49 -4 -46 -12 2 -7 9
-14 15 -14 7 -1 17 -2 22 -3 6 0 10 -5 10 -10 0 -4 -41 -8 -90 -8 -58 1 -89 5
-87 12 2 5 9 11 15 11 7 1 17 2 22 3 6 0 10 6 10 11 0 6 -23 10 -52 10 -79 0
-88 13 -88 128 0 134 -3 132 175 132 105 0 146 -4 160 -14z"/>
<path d="M3238 2669 c-13 -8 -18 -167 -6 -192 8 -16 23 -17 151 -15 l142 3 0
105 0 105 -138 0 c-76 0 -143 -3 -149 -6z"/>
<path d="M3362 2428 c5 -15 28 -18 29 -3 0 6 -7 12 -17 13 -10 3 -15 -1 -12
-10z"/>
<path d="M5581 2800 c-207 -32 -382 -190 -445 -400 -20 -66 -22 -206 -5 -276
58 -237 258 -403 504 -421 301 -20 563 212 582 517 22 349 -290 634 -636 580z
m263 -199 c14 -12 16 -53 16 -344 0 -293 -2 -332 -17 -349 -14 -16 -34 -18
-176 -18 -135 0 -163 3 -179 17 -17 15 -18 39 -18 343 0 333 2 351 38 362 8 2
83 3 167 3 112 -1 157 -4 169 -14z"/>
<path d="M5515 2590 c3 -5 10 -10 16 -10 5 0 9 5 9 10 0 6 -7 10 -16 10 -8 0
-12 -4 -9 -10z"/>
<path d="M5550 2590 c0 -5 5 -10 10 -10 6 0 10 5 10 10 0 6 -4 10 -10 10 -5 0
-10 -4 -10 -10z"/>
<path d="M5631 2586 c9 -9 69 -13 75 -5 3 5 -14 9 -37 9 -23 0 -40 -2 -38 -4z"/>
<path d="M5497 2534 c-4 -4 -7 -133 -7 -286 l0 -278 175 0 175 0 -2 283 -3
282 -166 3 c-91 1 -168 -1 -172 -4z"/>
<path d="M5627 1946 c-7 -18 12 -36 38 -36 12 0 26 5 32 11 19 19 3 39 -32 39
-19 0 -35 -6 -38 -14z"/>
<path d="M9010 2558 c0 -13 -9 -225 -21 -471 -11 -247 -19 -450 -17 -452 2 -2
28 -6 59 -10 l56 -7 7 229 c9 282 24 599 32 676 l7 57 -62 0 c-57 0 -61 -2
-61 -22z"/>
<path d="M3827 2476 c-3 -7 -8 -34 -12 -58 l-7 -45 129 -7 c105 -5 785 -59
1030 -81 76 -7 93 6 93 70 l0 44 -42 5 c-24 3 -279 22 -568 41 -289 19 -546
37 -571 40 -35 4 -48 2 -52 -9z"/>
<path d="M2785 2356 c-174 -66 -770 -307 -925 -373 -101 -44 -115 -53 -118
-76 -4 -31 23 -87 42 -87 7 0 46 15 87 34 70 32 529 221 919 378 96 38 181 76
188 83 12 11 10 19 -10 54 -12 22 -27 41 -33 41 -5 0 -73 -25 -150 -54z"/>
<path d="M35710 1441 l0 -781 100 0 100 0 2 317 3 318 295 6 c235 4 307 9 354
23 89 25 139 50 184 90 219 198 188 604 -56 734 -112 60 -147 64 -584 69
l-398 5 0 -781z m814 575 c65 -28 103 -63 132 -122 23 -47 28 -69 27 -133 -1
-88 -19 -140 -66 -189 -76 -79 -139 -92 -457 -92 l-250 0 0 273 c0 151 3 277
8 281 4 5 133 6 287 4 235 -4 286 -7 319 -22z"/>
<path d="M39450 1440 l0 -780 483 2 482 3 3 87 3 88 -383 2 -383 3 -3 688 -2
687 -100 0 -100 0 0 -780z"/>
<path d="M41960 1944 l0 -276 -46 41 c-75 66 -143 94 -241 99 -238 13 -407
-121 -475 -376 -30 -113 -29 -299 1 -407 30 -106 73 -185 137 -249 98 -98 217
-143 354 -133 98 6 154 31 225 97 l54 52 3 -64 3 -63 88 -3 87 -3 0 781 0 780
-95 0 -95 0 0 -276z m-173 -315 c60 -29 126 -105 152 -175 13 -32 28 -101 34
-152 35 -295 -87 -505 -292 -506 -115 -1 -206 58 -260 165 -44 87 -54 154 -49
304 6 144 23 208 78 282 75 102 221 138 337 82z"/>
<path d="M38350 2125 l-85 -51 -3 -142 -3 -141 -72 -3 -72 -3 0 -70 0 -70 72
-3 72 -3 3 -422 c3 -406 4 -424 24 -462 13 -25 39 -51 69 -70 47 -29 52 -30
171 -30 67 0 125 3 129 7 3 3 1 42 -6 86 l-12 79 -68 -1 c-58 -1 -72 2 -90 21
-33 33 -38 90 -36 458 l2 330 95 5 95 5 3 72 3 72 -98 3 -98 3 -5 191 -5 190
-85 -51z"/>
<path d="M40763 2123 l-93 -56 0 -138 0 -139 -70 0 -71 0 3 -72 3 -73 68 -3
67 -3 0 -337 c0 -531 7 -568 113 -625 37 -19 57 -22 164 -22 67 0 124 3 128 6
3 4 0 42 -7 85 l-14 79 -67 0 c-59 0 -69 3 -94 28 l-28 27 -3 380 -3 380 96 0
95 0 0 75 0 75 -95 0 -95 0 -2 194 -3 194 -92 -55z"/>
<path d="M1051 2144 c-168 -45 -305 -174 -362 -341 -33 -94 -32 -230 0 -326
73 -216 269 -357 496 -357 231 0 435 152 501 375 38 129 16 294 -54 414 -63
107 -192 203 -317 236 -73 19 -192 18 -264 -1z m340 -111 c11 -13 14 -87 15
-377 1 -199 -3 -373 -8 -387 -5 -15 -19 -30 -31 -33 -12 -3 -98 -6 -191 -6
-144 0 -172 3 -188 17 -17 15 -18 41 -18 394 0 330 2 380 16 393 24 24 385 24
405 -1z"/>
<path d="M1017 2034 c-8 -8 1 -24 14 -24 5 0 9 7 9 15 0 15 -12 20 -23 9z"/>
<path d="M1060 2019 c0 -5 5 -7 10 -4 6 3 10 8 10 11 0 2 -4 4 -10 4 -5 0 -10
-5 -10 -11z"/>
<path d="M1144 2013 c7 -7 77 -5 85 3 2 2 -17 4 -44 4 -27 0 -45 -3 -41 -7z"/>
<path d="M990 1640 l0 -320 197 2 197 3 1 305 c1 168 -1 311 -3 318 -3 9 -52
12 -198 12 l-194 0 0 -320z"/>
<path d="M1144 1295 c-10 -24 9 -37 47 -33 26 2 34 8 34 23 0 16 -8 21 -38 23
-27 2 -39 -1 -43 -13z"/>
<path d="M6210 1978 c-11 -24 -20 -50 -20 -58 0 -9 34 -30 88 -54 81 -36 490
-242 1372 -689 l354 -180 13 31 c7 17 14 45 15 62 l3 31 -892 450 c-491 247
-897 449 -903 449 -6 0 -20 -19 -30 -42z"/>
<path d="M37022 1781 c1 -5 98 -259 213 -565 l210 -556 90 0 91 0 208 553
c115 303 211 558 214 565 3 10 -17 12 -93 10 l-98 -3 -153 -420 c-84 -231
-153 -428 -154 -437 -1 -45 -21 -20 -44 54 -14 46 -84 245 -155 443 l-129 360
-102 3 c-61 2 -101 -1 -98 -7z"/>
<path d="M8700 1525 c-381 -78 -637 -408 -617 -795 10 -201 78 -352 227 -501
81 -81 109 -102 190 -142 133 -65 201 -81 345 -81 140 -1 209 15 330 73 166
79 281 193 360 356 58 119 77 203 77 340 0 175 -53 329 -158 466 -175 227
-476 341 -754 284z m428 -195 c12 -11 24 -31 27 -43 3 -12 4 -253 3 -535 l-3
-514 -29 -24 -28 -25 -258 3 c-237 3 -260 5 -279 22 -21 19 -21 23 -21 554 l0
536 22 23 c21 23 23 23 283 23 249 0 262 -1 283 -20z"/>
<path d="M8607 1324 c-9 -10 4 -34 19 -34 8 0 14 9 14 20 0 19 -19 27 -33 14z"/>
<path d="M8670 1310 c0 -5 5 -10 10 -10 6 0 10 5 10 10 0 6 -4 10 -10 10 -5 0
-10 -4 -10 -10z"/>
<path d="M8780 1300 c0 -6 28 -10 65 -10 37 0 65 4 65 10 0 6 -28 10 -65 10
-37 0 -65 -4 -65 -10z"/>
<path d="M8570 770 l0 -450 278 2 277 3 0 445 0 445 -277 3 -278 2 0 -450z"/>
<path d="M8789 284 c-23 -28 1 -49 56 -49 51 0 74 18 62 49 -9 22 -99 23 -118
0z"/>
</g>
</svg>
