<?xml version="1.0" encoding="UTF-8"?>
<svg id="Layer_2" data-name="Layer 2" xmlns="http://www.w3.org/2000/svg" xmlns:xlink="http://www.w3.org/1999/xlink" viewBox="0 0 224 224">
  <defs>
    <style>
      .cls-1, .cls-2 {
        fill: #fff;
      }

      .cls-2 {
        stroke: #fbb03b;
        stroke-miterlimit: 10;
        stroke-width: .25px;
      }

      .cls-3 {
        fill: url(#linear-gradient);
      }

      .cls-4 {
        fill: #ffaa17;
      }
    </style>
    <linearGradient id="linear-gradient" x1="0" y1="112" x2="224" y2="112" gradientUnits="userSpaceOnUse">
      <stop offset="0" stop-color="#231f20"/>
      <stop offset="1" stop-color="#231f20"/>
    </linearGradient>
  </defs>
  <g id="Layer_1-2" data-name="Layer 1">
    <g>
      <rect class="cls-3" width="224" height="224" rx="38.79" ry="38.79"/>
      <g>
        <g>
          <circle class="cls-1" cx="52.67" cy="132.11" r="6.88"/>
          <circle class="cls-1" cx="180.33" cy="194.46" r="13.54"/>
          <circle class="cls-1" cx="123.38" cy="167.86" r="9.83"/>
          <circle class="cls-1" cx="82.44" cy="162.5" r="6.79"/>
          <circle class="cls-1" cx="42.93" cy="178.95" r="9.3"/>
          <circle class="cls-1" cx="74.22" cy="73.46" r="9.3"/>
          <circle class="cls-1" cx="162" cy="121.38" r="9.65"/>
          <circle class="cls-1" cx="188.73" cy="21.26" r="6.26"/>
          <circle class="cls-1" cx="109.17" cy="43.07" r="6.26"/>
          <circle class="cls-1" cx="28.81" cy="65.24" r="6.79"/>
          <circle class="cls-2" cx="184.26" cy="153.83" r="7.06"/>
          <circle class="cls-1" cx="107.11" cy="114.76" r="18.24"/>
          <circle class="cls-1" cx="169.64" cy="72.66" r="14.35"/>
        </g>
        <path class="cls-4" d="m54.99,129.42h-4.54c-.45,0-.81.36-.81.81v2.72c0,.45.36.81.81.81h1.67l-.29.46h-.49c-.12,0-.21.1-.21.21s.1.21.21.21h2.78c.12,0,.21-.1.21-.21s-.1-.21-.21-.21h-.52l-.26-.46h1.64c.45,0,.81-.36.81-.81v-2.72c0-.45-.36-.81-.81-.81Zm-1.82,4.81h-.87l.26-.46h.32l.29.46Zm2.24-1.14c0,.18-.14.32-.32.32h-4.74c-.18,0-.32-.14-.32-.32v-2.99c0-.18.14-.32.32-.32h4.74c.18,0,.32.14.32.32v2.99Z"/>
        <g>
          <rect class="cls-1" x="39.58" y="71.45" width="2.15" height="54.62" transform="translate(-30.64 19.24) rotate(-19.5)"/>
          <rect class="cls-1" x="41.62" y="103.23" width="42.41" height="2.15" transform="translate(-55.63 132.5) rotate(-72.33)"/>
          <rect class="cls-1" x="59.88" y="124.42" width="28.78" height="2.15" transform="translate(-37.18 31.45) rotate(-19.22)"/>
          <rect class="cls-1" x="78.98" y="142.65" width="25" height="2.15" transform="translate(-77.35 166.59) rotate(-65.24)"/>
          <rect class="cls-1" x="100.55" y="154.6" width="2.15" height="22.23" transform="translate(-71.02 255.08) rotate(-85.85)"/>
          <rect class="cls-1" x="116.1" y="133.72" width="2.15" height="23.99" transform="translate(-36.46 39.14) rotate(-16.45)"/>
          <rect class="cls-1" x="137.74" y="108.19" width="2.15" height="23.7" transform="translate(6.7 247.41) rotate(-84.81)"/>
          <rect class="cls-1" x="120.88" y="92.24" width="40" height="2.15" transform="translate(-28.1 92.83) rotate(-33.35)"/>
          <rect class="cls-1" x="154.46" y="97.96" width="22.15" height="2.15" transform="translate(47.19 251.36) rotate(-83.05)"/>
          <rect class="cls-1" x="133.68" y="160.04" width="43.52" height="2.15" transform="translate(-30.57 36.54) rotate(-12.22)"/>
          <rect class="cls-1" x="175.72" y="169.83" width="17" height="2.15" transform="translate(5.72 347.77) rotate(-87.59)"/>
          <rect class="cls-1" x="148.55" y="163.49" width="2.15" height="36.13" transform="translate(-79.52 234.84) rotate(-63.6)"/>
          <polygon class="cls-1" points="178.72 147.68 167.27 132.3 168.99 131.01 180.43 146.39 178.72 147.68"/>
          <rect class="cls-1" x="51.99" y="169.69" width="24.08" height="2.15" transform="translate(-60.34 37.38) rotate(-22.44)"/>
          <rect class="cls-1" x="66.22" y="135.23" width="2.15" height="25.92" transform="translate(-83.64 87.29) rotate(-43.6)"/>
          <rect class="cls-1" x="34.02" y="153.2" width="28.3" height="2.15" transform="translate(-112.66 170.26) rotate(-78.34)"/>
          <rect class="cls-1" x="86.32" y="80.62" width="2.15" height="20.83" transform="translate(-38.02 77.04) rotate(-39.8)"/>
          <rect class="cls-1" x="86.86" y="72.11" width="43.03" height="2.15" transform="translate(30.1 177.93) rotate(-87.26)"/>
          <rect class="cls-1" x="135.28" y="35.17" width="2.15" height="43.15" transform="translate(23.44 151.94) rotate(-62.73)"/>
          <rect class="cls-1" x="115.99" y="30.62" width="65.66" height="2.15" transform="translate(-3.07 40.75) rotate(-15.43)"/>
          <rect class="cls-1" x="166.27" y="42.89" width="31.18" height="2.15" transform="translate(81.42 201.82) rotate(-71.12)"/>
          <rect class="cls-1" x="79.86" y="56.3" width="26.9" height="2.15" transform="translate(-15.01 73.68) rotate(-40.15)"/>
          <rect class="cls-1" x="49.06" y="56.08" width="2.15" height="26.19" transform="translate(-27.09 105.7) rotate(-79.38)"/>
        </g>
        <g>
          <path class="cls-4" d="m120.02,122.97l-4.28-4.39c-.13-.13-.07-.35.1-.4.69-.21,1.19-.85,1.19-1.61v-10.59c0-.93-.75-1.68-1.68-1.68h-16.49c-.93,0-1.68.75-1.68,1.68v10.59c0,.11.01.71.49,1.19.48.48,1.08.49,1.19.49,0,.03.01.06.02.09h0s-.03.03-.04.04c-.04.04-.11.11-.15.15-1.48,1.48-2.96,2.96-4.43,4.43-.8.8-.23,2.18.9,2.18h23.93c1.13,0,1.7-1.36.91-2.17Zm-21.15-5.88c-.28,0-.51-.23-.51-.51v-10.42c0-.28.23-.51.51-.51h16.5c.28,0,.51.23.51.51v10.42c0,.28-.23.51-.51.51h-16.5Zm5.03,6.44l.72-1.79h5.01l.89,1.79h-6.62Zm-5.9-2.5l1.79-1.79h14.8l1.78,1.79h-18.37Z"/>
          <path class="cls-4" d="m46.34,171.62h-6.46c-.39,0-.7.31-.7.7v13.13c0,.39.31.7.7.7h6.46c.39,0,.7-.31.7-.7v-13.13c0-.39-.31-.7-.7-.7Zm-3.71.48h1.19c.07,0,.12.05.12.12s-.05.12-.12.12h-1.19c-.07,0-.12-.05-.12-.12s.05-.12.12-.12Zm-.95,0c.07,0,.12.05.12.12s-.05.12-.12.12-.12-.05-.12-.12.05-.12.12-.12Zm-.48,0c.07,0,.12.05.12.12s-.05.12-.12.12-.12-.05-.12-.12.05-.12.12-.12Zm2.86,13.39c-.07.07-.17.12-.28.12h-1.59c-.22,0-.4-.18-.4-.4,0-.11.04-.21.12-.28.07-.07.17-.12.28-.12h1.59c.22,0,.4.18.4.4,0,.11-.04.21-.12.28Zm2.5-.99h-6.91v-11.44h6.91v11.44Z"/>
          <path class="cls-4" d="m126.19,161.43h-5.8c-.35,0-.63.28-.63.63v11.79c0,.35.28.63.63.63h5.8c.35,0,.63-.28.63-.63v-11.79c0-.35-.28-.63-.63-.63Zm-3.33.43h1.07c.06,0,.11.05.11.11s-.05.11-.11.11h-1.07c-.06,0-.11-.05-.11-.11s.05-.11.11-.11Zm-.86,0c.06,0,.11.05.11.11s-.05.11-.11.11-.11-.05-.11-.11.05-.11.11-.11Zm-.43,0c.06,0,.11.05.11.11s-.05.11-.11.11-.11-.05-.11-.11.05-.11.11-.11Zm2.57,12.02c-.06.07-.15.11-.25.11h-1.42c-.2,0-.36-.16-.36-.36,0-.1.04-.19.1-.25.06-.07.15-.11.25-.11h1.42c.2,0,.36.16.36.36,0,.1-.04.19-.1.25Zm2.24-.89h-6.2v-10.27h6.2v10.27Z"/>
          <path class="cls-4" d="m84.75,160h-4.7c-.46,0-.84.38-.84.84v2.82c0,.46.38.84.84.84h1.73l-.3.48h-.5c-.12,0-.22.1-.22.22s.1.22.22.22h2.88c.12,0,.22-.1.22-.22s-.1-.22-.22-.22h-.54l-.27-.48h1.7c.46,0,.84-.38.84-.84v-2.82c0-.46-.38-.84-.84-.84Zm-1.88,4.98h-.9l.27-.48h.34l.3.48Zm2.32-1.18c0,.18-.15.33-.33.33h-4.9c-.18,0-.33-.15-.33-.33v-3.1c0-.18.15-.33.33-.33h4.9c.18,0,.33.15.33.33v3.1Z"/>
          <path class="cls-4" d="m184.86,184.36h-9.03c-.54,0-.98.44-.98.98v18.36c0,.54.44.98.98.98h9.03c.54,0,.98-.44.98-.98v-18.36c0-.54-.44-.98-.98-.98Zm-5.18.67h1.67c.09,0,.17.07.17.17s-.07.17-.17.17h-1.67c-.09,0-.17-.07-.17-.17s.07-.17.17-.17Zm-1.33,0c.09,0,.17.07.17.17s-.07.17-.17.17-.17-.07-.17-.17.07-.17.17-.17Zm-.67,0c.09,0,.17.07.17.17s-.07.17-.17.17-.17-.07-.17-.17.07-.17.17-.17Zm4,18.72c-.1.1-.24.17-.39.17h-2.22c-.31,0-.56-.25-.56-.56,0-.15.06-.29.16-.39.1-.1.24-.17.39-.17h2.22c.31,0,.56.25.56.56,0,.15-.06.29-.16.39Zm3.5-1.39h-9.67v-16h9.67v16Z"/>
          <path class="cls-4" d="m167.18,116.02h-9.91c-.98,0-1.78.8-1.78,1.78v5.94c0,.98.8,1.78,1.78,1.78h3.65l-.63,1.01h-1.06c-.26,0-.47.21-.47.47s.21.47.47.47h6.07c.26,0,.47-.21.47-.47s-.21-.47-.47-.47h-1.14l-.56-1.01h3.58c.98,0,1.78-.8,1.78-1.78v-5.94c0-.98-.8-1.78-1.78-1.78Zm-3.97,10.5h-1.9l.56-1.01h.71l.63,1.01Zm4.89-2.49c0,.39-.31.7-.7.7h-10.35c-.39,0-.7-.31-.7-.7v-6.53c0-.39.31-.7.7-.7h10.35c.39,0,.7.31.7.7v6.53Z"/>
          <path class="cls-4" d="m175.2,66.99h-11.14c-1.1,0-2,.89-2,2v6.68c0,1.1.89,2,2,2h4.1l-.71,1.14h-1.19c-.29,0-.52.23-.52.52s.23.52.52.52h6.82c.29,0,.52-.23.52-.52s-.23-.52-.52-.52h-1.28l-.63-1.14h4.03c1.1,0,2-.89,2-2v-6.68c0-1.1-.89-2-2-2Zm-4.47,11.81h-2.14l.63-1.14h.8l.71,1.14Zm5.5-2.8c0,.44-.35.79-.79.79h-11.63c-.44,0-.79-.35-.79-.79v-7.35c0-.44.35-.79.79-.79h11.63c.44,0,.79.35.79.79v7.35Z"/>
          <path class="cls-4" d="m192.89,23.97l-1.35-1.39s-.02-.11.03-.13c.22-.07.38-.27.38-.51v-3.35c0-.29-.24-.53-.53-.53h-5.22c-.29,0-.53.24-.53.53v3.35s0,.22.16.38c.15.15.34.16.38.16,0,0,0,.02,0,.03h0s-.01.01-.01.01c-.01.01-.03.03-.05.05-.47.47-.94.94-1.4,1.4-.25.25-.07.69.29.69h7.58c.36,0,.54-.43.29-.69Zm-6.7-1.86c-.09,0-.16-.07-.16-.16v-3.3c0-.09.07-.16.16-.16h5.22c.09,0,.16.07.16.16v3.3c0,.09-.07.16-.16.16h-5.22Zm1.59,2.04l.23-.57h1.59l.28.57h-2.09Zm-1.87-.79l.57-.57h4.69l.56.57h-5.82Z"/>
          <path class="cls-4" d="m113.15,45.6l-1.35-1.39s-.02-.11.03-.13c.22-.07.38-.27.38-.51v-3.35c0-.29-.24-.53-.53-.53h-5.22c-.29,0-.53.24-.53.53v3.35s0,.22.16.38c.15.15.34.16.38.16,0,0,0,.02,0,.03h0s-.01.01-.01.01c-.01.01-.03.03-.05.05-.47.47-.94.94-1.4,1.4-.25.25-.07.69.29.69h7.58c.36,0,.54-.43.29-.69Zm-6.7-1.86c-.09,0-.16-.07-.16-.16v-3.3c0-.09.07-.16.16-.16h5.22c.09,0,.16.07.16.16v3.3c0,.09-.07.16-.16.16h-5.22Zm1.59,2.04l.23-.57h1.59l.28.57h-2.09Zm-1.87-.79l.57-.57h4.69l.56.57h-5.82Z"/>
          <path class="cls-4" d="m55.13,129.4h-4.76c-.47,0-.85.38-.85.85v2.86c0,.47.38.85.85.85h1.76l-.3.49h-.51c-.12,0-.22.1-.22.22s.1.22.22.22h2.92c.12,0,.22-.1.22-.22s-.1-.22-.22-.22h-.55l-.27-.49h1.72c.47,0,.85-.38.85-.85v-2.86c0-.47-.38-.85-.85-.85Zm-1.91,5.05h-.91l.27-.49h.34l.3.49Zm2.35-1.2c0,.19-.15.34-.34.34h-4.98c-.19,0-.34-.15-.34-.34v-3.14c0-.19.15-.34.34-.34h4.98c.19,0,.34.15.34.34v3.14Z"/>
          <path class="cls-4" d="m76.56,68.24h-4.78c-.29,0-.52.23-.52.52v9.72c0,.29.23.52.52.52h4.78c.29,0,.52-.23.52-.52v-9.72c0-.29-.23-.52-.52-.52Zm-2.74.35h.88s.09.04.09.09-.04.09-.09.09h-.88s-.09-.04-.09-.09.04-.09.09-.09Zm-.71,0s.09.04.09.09-.04.09-.09.09-.09-.04-.09-.09.04-.09.09-.09Zm-.35,0s.09.04.09.09-.04.09-.09.09-.09-.04-.09-.09.04-.09.09-.09Zm2.12,9.91c-.05.05-.13.09-.21.09h-1.18c-.16,0-.29-.13-.29-.29,0-.08.03-.15.09-.21.05-.05.13-.09.21-.09h1.18c.16,0,.29.13.29.29,0,.08-.03.15-.09.21Zm1.85-.74h-5.12v-8.47h5.12v8.47Z"/>
          <path class="cls-4" d="m32.81,67.79l-1.31-1.34s-.02-.11.03-.12c.21-.06.36-.26.36-.49v-3.24c0-.28-.23-.51-.51-.51h-5.04c-.28,0-.51.23-.51.51v3.24s0,.22.15.36c.15.15.33.15.36.15,0,0,0,.02,0,.03h0s-.01.01-.01.01c-.01.01-.03.03-.04.04-.45.45-.9.9-1.36,1.36-.25.25-.07.67.28.67h7.32c.35,0,.52-.42.28-.66Zm-6.47-1.8c-.09,0-.16-.07-.16-.16v-3.19c0-.09.07-.16.16-.16h5.05c.09,0,.16.07.16.16v3.19c0,.09-.07.16-.16.16h-5.05Zm1.54,1.97l.22-.55h1.53l.27.55h-2.02Zm-1.8-.77l.55-.55h4.53l.54.55h-5.62Z"/>
        </g>
      </g>
    </g>
  </g>
</svg>