<?xml version="1.0" encoding="UTF-8"?>
<svg xmlns="http://www.w3.org/2000/svg" width="654.259" height="506.809">
  <defs>
    <clipPath id="a">
      <path fill="none" d="M0 0h620.12v484.36H0z" data-name="Rectangle 1046"></path>
    </clipPath>
  </defs>
  <g data-name="Group 5377">
    <g data-name="Group 5376">
      <g data-name="Group 5273">
        <g data-name="Group 5272">
          <g clip-path="url(#a)" data-name="Group 5271" transform="translate(1.695)">
            <g data-name="Group 5270">
              <g data-name="Group 5268">
                <path fill="#fff" d="M382.039 52.12C282.35 73.182 297.2 189.62 125.575 254.964-58.373 324.998 53.039 589.21 262.326 604.251c208.307 14.971 333.176-78.955 354.559-257.455 16.082-134.22-86.707-325.973-234.846-294.676Z" data-name="Path 58611" opacity=".05"></path>
              </g>
              <g data-name="Group 5269">
                <path fill="#ecf2fa" d="M149.704 226.365c44.708-15.362 112.476-87.159 87.968-167.574S17.714 271.717 149.704 226.365Z" data-name="Path 58612" opacity=".1"></path>
              </g>
              <path fill="#fff" d="M472.748 329.385c1.848-20.278 3.82-40.585 7.291-60.662 3.365-19.465 8.7-38.245 17.053-56.187a21.56 21.56 0 0 1 7.7-7.7 22.54 22.54 0 0 1 2.095-1.071c-13.442-14.827-22.719-30.947-20.677-60.571 2.572-37.258-8.291-65.475-20.632-85.08a147.758 147.758 0 0 0-83.538-6c-99.691 21.062-84.843 137.508-256.46 202.855-85.145 32.417-107.02 106.419-85.166 178.066 31.26-17.868 76-32.459 133.181-23.353 120.6 19.2 187.384-24.126 228.629-47.629 21.908-12.484 48.282-11.749 68.2-8.315.853-8.107 1.584-16.231 2.324-24.353Z" data-name="Path 58613" opacity=".05"></path>
              <path fill="#fff" d="M519.382 338.728a22.134 22.134 0 0 1-3.934-6.9q-.607 6.636-1.246 13.269Z" data-name="Path 58614" opacity=".05"></path>
            </g>
          </g>
        </g>
      </g>
      <g data-name="Group 5375" transform="translate(0 125.701)">
        <ellipse cx="327.13" cy="14.239" data-name="Ellipse 165" opacity=".1" rx="327.13" ry="14.239" transform="translate(0 352.631)"></ellipse>
        <g data-name="Group 5274" transform="translate(113.426 16.487)">
          <path fill="#155bcd" d="M27.418 27.418H399.99v203.54H27.418z" data-name="Rectangle 1047"></path>
          <path fill="#009539" d="M410.772 0H16.636A16.637 16.637 0 0 0 0 16.636v238.9a16.638 16.638 0 0 0 16.636 16.64h394.136a16.638 16.638 0 0 0 16.636-16.64v-238.9A16.637 16.637 0 0 0 410.772 0Zm1.68 243.42h-397.5V14.956h397.5Z" data-name="Path 58615"></path>
          <path fill="#e2f7e6" d="M14.899 14.956h397.553V243.42H14.899z" data-name="Rectangle 1048"></path>
          <circle cx="9.391" cy="9.391" r="9.391" fill="#00772a" data-name="Ellipse 166" transform="rotate(-80.783 257.996 13.922)"></circle>
          <path fill="#00772a" d="M166.236 272.171h94.937v48.047h-94.937z" data-name="Rectangle 1049"></path>
          <path fill="#009539" d="M362.669 350.899H64.738l14.086-31.839h269.759Z" data-name="Path 58616"></path>
        </g>
        <path fill="#fff" d="M436.092 16.476v334.99H216.319V16.476A16.474 16.474 0 0 0 199.854 0H419.62a16.474 16.474 0 0 1 16.472 16.476Z" data-name="Path 58617"></path>
        <g data-name="Group 5275">
          <path fill="#84a9ff" d="M407.745 0c6.833 1.756 11.811 9.611 11.811 16.48l.171 318.623H232.683l-.167-318.627A22.339 22.339 0 0 0 224.694 0h-7.629c6.836 1.756 11.815 9.611 11.815 16.48l.171 322.26h194.314l-.171-322.263A22.339 22.339 0 0 0 415.372.001Z" data-name="Path 58618"></path>
        </g>
        <path fill="#fff" d="M199.849.002Z" data-name="Path 58619"></path>
        <path fill="gray" d="M216.321 16.478h-32.944a16.472 16.472 0 1 1 32.944 0Z" data-name="Path 58620"></path>
        <g data-name="Group 5308">
          <g data-name="Group 5280">
            <g data-name="Group 5276">
              <path fill="#84a9ff" d="M292.792 62.981h-40.816V22.165h40.816Zm-37.349-3.466h33.882V25.632h-33.882Z" data-name="Path 58621"></path>
            </g>
            <g data-name="Group 5277">
              <path fill="#155bcd" d="M300.318 27.935h101.181v3.467H300.318z" data-name="Rectangle 1050"></path>
            </g>
            <g data-name="Group 5278">
              <path fill="#84a9ff" d="M300.318 40.839h101.181v3.467H300.318z" data-name="Rectangle 1051"></path>
            </g>
            <g data-name="Group 5279">
              <path fill="#84a9ff" d="M300.318 53.744h71.122v3.467h-71.122z" data-name="Rectangle 1052"></path>
            </g>
          </g>
          <g data-name="Group 5285">
            <g data-name="Group 5281">
              <path fill="#84a9ff" d="M292.792 115.048h-40.816V74.232h40.816Zm-37.349-3.467h33.882V77.699h-33.882Z" data-name="Path 58622"></path>
            </g>
            <g data-name="Group 5282">
              <path fill="#155bcd" d="M300.318 80.002h101.181v3.467H300.318z" data-name="Rectangle 1053"></path>
            </g>
            <g data-name="Group 5283">
              <path fill="#84a9ff" d="M300.318 92.906h101.181v3.467H300.318z" data-name="Rectangle 1054"></path>
            </g>
            <g data-name="Group 5284">
              <path fill="#84a9ff" d="M300.318 105.811h71.122v3.467h-71.122z" data-name="Rectangle 1055"></path>
            </g>
          </g>
          <g data-name="Group 5290">
            <g data-name="Group 5286">
              <path fill="#84a9ff" d="M292.792 167.114h-40.816v-40.816h40.816Zm-37.349-3.467h33.882v-33.882h-33.882Z" data-name="Path 58623"></path>
            </g>
            <g data-name="Group 5287">
              <path fill="#155bcd" d="M300.318 132.068h101.181v3.467H300.318z" data-name="Rectangle 1056"></path>
            </g>
            <g data-name="Group 5288">
              <path fill="#84a9ff" d="M300.318 144.973h101.181v3.467H300.318z" data-name="Rectangle 1057"></path>
            </g>
            <g data-name="Group 5289">
              <path fill="#84a9ff" d="M300.318 157.877h71.122v3.467h-71.122z" data-name="Rectangle 1058"></path>
            </g>
          </g>
          <g data-name="Group 5296">
            <g data-name="Group 5291">
              <path fill="#84a9ff" d="M292.792 219.181h-40.816v-40.816h40.816Zm-37.349-3.466h33.882v-33.883h-33.882Z" data-name="Path 58624"></path>
            </g>
            <g data-name="Group 5292">
              <path fill="#155bcd" d="M300.318 184.135h101.181v3.467H300.318z" data-name="Rectangle 1059"></path>
            </g>
            <g data-name="Group 5293">
              <path fill="#84a9ff" d="M300.318 197.04h101.181v3.467H300.318z" data-name="Rectangle 1060"></path>
            </g>
            <g data-name="Group 5294">
              <path fill="#84a9ff" d="M300.318 209.944h71.122v3.467h-71.122z" data-name="Rectangle 1061"></path>
            </g>
            <g data-name="Group 5295">
              <path fill="#009539" d="m271.343 212.129-12.34-8.294a1.733 1.733 0 1 1 1.934-2.877l9.489 6.378 14.058-20.5a1.733 1.733 0 0 1 2.859 1.96Z" data-name="Path 58625"></path>
            </g>
          </g>
          <g data-name="Group 5301">
            <g data-name="Group 5297">
              <path fill="#84a9ff" d="M292.792 271.247h-40.816v-40.816h40.816Zm-37.349-3.467h33.882v-33.883h-33.882Z" data-name="Path 58626"></path>
            </g>
            <g data-name="Group 5298">
              <path fill="#155bcd" d="M300.318 236.201h101.181v3.467H300.318z" data-name="Rectangle 1062"></path>
            </g>
            <g data-name="Group 5299">
              <path fill="#84a9ff" d="M300.318 249.106h101.181v3.467H300.318z" data-name="Rectangle 1063"></path>
            </g>
            <g data-name="Group 5300">
              <path fill="#84a9ff" d="M300.318 262.01h71.122v3.467h-71.122z" data-name="Rectangle 1064"></path>
            </g>
          </g>
          <g data-name="Group 5307">
            <g data-name="Group 5302">
              <path fill="#84a9ff" d="M292.792 323.314h-40.816v-40.816h40.816Zm-37.349-3.467h33.882v-33.882h-33.882Z" data-name="Path 58627"></path>
            </g>
            <g data-name="Group 5303">
              <path fill="#155bcd" d="M300.318 288.268h101.181v3.467H300.318z" data-name="Rectangle 1065"></path>
            </g>
            <g data-name="Group 5304">
              <path fill="#84a9ff" d="M300.318 301.173h101.181v3.467H300.318z" data-name="Rectangle 1066"></path>
            </g>
            <g data-name="Group 5305">
              <path fill="#84a9ff" d="M300.318 314.077h71.122v3.467h-71.122z" data-name="Rectangle 1067"></path>
            </g>
            <g data-name="Group 5306">
              <path fill="#009539" d="m271.343 316.262-12.34-8.294a1.733 1.733 0 0 1 1.934-2.877l9.489 6.378 14.058-20.5a1.733 1.733 0 0 1 2.859 1.961Z" data-name="Path 58628"></path>
            </g>
          </g>
        </g>
        <g data-name="Group 5327">
          <g data-name="Group 5309" transform="translate(146.492 54.23)">
            <rect width="217.9" height="98.151" fill="#fff" data-name="Rectangle 1068" rx="43.74"></rect>
            <path fill="#001c33" d="M217.9 15.905v10.277H0V15.905A15.906 15.906 0 0 1 15.905.005h186.09a15.906 15.906 0 0 1 15.905 15.9Z" data-name="Path 58629"></path>
          </g>
          <g data-name="Group 5313" transform="translate(172.483 90.856)">
            <g data-name="Group 5310">
              <path fill="#155bcd" d="M22.956 2.74h31.35v1.646h-31.35z" data-name="Rectangle 1069"></path>
            </g>
            <g data-name="Group 5311">
              <path fill="#84a9ff" d="M22.956 8.868h48.048v1.646H22.956z" data-name="Rectangle 1070"></path>
            </g>
            <g data-name="Group 5312">
              <path fill="#84a9ff" d="M22.956 14.996h48.048v1.646H22.956z" data-name="Rectangle 1071"></path>
            </g>
            <path fill="#155bcd" d="M9.691 0a9.691 9.691 0 1 0 9.691 9.691A9.691 9.691 0 0 0 9.691 0Zm0 17.928a8.237 8.237 0 1 1 8.237-8.237 8.246 8.246 0 0 1-8.237 8.237Z" data-name="Path 58630"></path>
            <circle cx="5.568" cy="5.568" r="5.568" fill="#009539" data-name="Ellipse 167" transform="rotate(-19.52 19.623 -4.355)"></circle>
          </g>
          <g data-name="Group 5317">
            <g data-name="Group 5314">
              <path fill="#155bcd" d="M195.439 121.637h31.35v1.646h-31.35z" data-name="Rectangle 1072"></path>
            </g>
            <g data-name="Group 5315">
              <path fill="#84a9ff" d="M195.439 127.765h48.048v1.646h-48.048z" data-name="Rectangle 1073"></path>
            </g>
            <g data-name="Group 5316">
              <path fill="#84a9ff" d="M195.439 133.893h48.048v1.646h-48.048z" data-name="Rectangle 1074"></path>
            </g>
            <path fill="#155bcd" d="M182.174 118.897a9.691 9.691 0 1 0 9.691 9.691 9.691 9.691 0 0 0-9.691-9.691Zm0 17.928a8.237 8.237 0 1 1 8.237-8.237 8.246 8.246 0 0 1-8.237 8.237Z" data-name="Path 58631"></path>
          </g>
          <g data-name="Group 5321">
            <g data-name="Group 5318">
              <path fill="#155bcd" d="M290.352 93.596h31.35v1.646h-31.35z" data-name="Rectangle 1075"></path>
            </g>
            <g data-name="Group 5319">
              <path fill="#84a9ff" d="M290.352 99.724H338.4v1.646h-48.048z" data-name="Rectangle 1076"></path>
            </g>
            <g data-name="Group 5320">
              <path fill="#84a9ff" d="M290.352 105.852H338.4v1.646h-48.048z" data-name="Rectangle 1077"></path>
            </g>
            <path fill="#009539" d="M282.374 102.294a5.568 5.568 0 1 1-3.541-7.034 5.568 5.568 0 0 1 3.541 7.034Z" data-name="Path 58632"></path>
          </g>
          <g data-name="Group 5326">
            <g data-name="Group 5322">
              <path fill="#155bcd" d="M290.353 121.637h31.35v1.646h-31.35z" data-name="Rectangle 1078"></path>
            </g>
            <g data-name="Group 5323">
              <path fill="#84a9ff" d="M290.353 127.765h48.048v1.646h-48.048z" data-name="Rectangle 1079"></path>
            </g>
            <g data-name="Group 5324">
              <path fill="#84a9ff" d="M290.353 133.893h48.048v1.646h-48.048z" data-name="Rectangle 1080"></path>
            </g>
            <g fill="#155bcd" data-name="Group 5325">
              <path d="M277.087 110.238a9.691 9.691 0 1 0-9.691-9.691 9.691 9.691 0 0 0 9.691 9.691Zm0-17.928a8.237 8.237 0 1 1-8.237 8.237 8.246 8.246 0 0 1 8.237-8.236Z" data-name="Path 58633"></path>
              <path d="M277.087 118.896a9.691 9.691 0 1 0 9.692 9.691 9.691 9.691 0 0 0-9.692-9.691Zm0 17.928a8.237 8.237 0 1 1 8.237-8.237 8.246 8.246 0 0 1-8.237 8.237Z" data-name="Path 58634"></path>
            </g>
            <path fill="#009539" d="M282.374 130.334a5.568 5.568 0 1 1-3.541-7.034 5.568 5.568 0 0 1 3.541 7.034Z" data-name="Path 58635"></path>
          </g>
        </g>
        <g data-name="Group 5337">
          <g data-name="Group 5328">
            <path fill="#fff" d="M504.096 124.505v66.34a15.906 15.906 0 0 1-15.905 15.905H378.566a15.906 15.906 0 0 1-15.905-15.905v-66.34a15.906 15.906 0 0 1 15.905-15.905H488.19a15.906 15.906 0 0 1 15.906 15.905Z" data-name="Path 58636"></path>
            <path fill="#001c33" d="M504.096 124.505v10.274H362.661v-10.274a15.906 15.906 0 0 1 15.905-15.905H488.19a15.906 15.906 0 0 1 15.906 15.905Z" data-name="Path 58637"></path>
          </g>
          <g data-name="Group 5336">
            <g data-name="Group 5331">
              <g data-name="Group 5329">
                <path fill="#155bcd" d="M408.035 164.608h-19.383v-19.382h19.383Zm-17.736-1.646h16.09v-16.09h-16.09Z" data-name="Path 58638"></path>
              </g>
              <g data-name="Group 5330">
                <path fill="#009539" d="m397.849 161.259-5.86-3.939a.823.823 0 1 1 .918-1.366l4.506 3.029 6.676-9.736a.823.823 0 0 1 1.358.931Z" data-name="Path 58639"></path>
              </g>
            </g>
            <g data-name="Group 5333">
              <g data-name="Group 5332">
                <path fill="#155bcd" d="M408.035 192.487h-19.383v-19.382h19.383Zm-17.736-1.646h16.09v-16.09h-16.09Z" data-name="Path 58640"></path>
              </g>
            </g>
            <path fill="#155bcd" d="M446.882 145.226v19.382h19.378v-19.382Zm17.736 17.736h-16.09v-16.09h16.09Z" data-name="Path 58641"></path>
            <g data-name="Group 5335">
              <g data-name="Group 5334">
                <path fill="#155bcd" d="M466.26 192.487h-19.382v-19.382h19.382Zm-17.736-1.646h16.09v-16.09h-16.09Z" data-name="Path 58642"></path>
              </g>
            </g>
            <path fill="#155bcd" d="M471.905 158.572a1.348 1.348 0 0 0 1.55 1.5h4.649v2h-4.649q-3.616 0-3.616-3.5v-6.994q0-3.5 3.616-3.5h4.649v2h-4.649a1.348 1.348 0 0 0-1.55 1.5Z" data-name="Path 58643"></path>
            <path fill="#155bcd" d="M475.521 175.965q3.617 0 3.616 3.5v6.994q0 3.5-3.616 3.5h-5.683v-13.986Zm1.55 3.5a1.348 1.348 0 0 0-1.55-1.5h-3.616v9.991h3.616a1.348 1.348 0 0 0 1.55-1.5Z" data-name="Path 58644"></path>
          </g>
          <path fill="#155bcd" d="M422.974 161.824h-2.066l-.961-3h-5.31l-.961 3h-2.066l4.339-13.987h2.686Zm-7.708-5h4.05l-2.025-6.993Z" data-name="Path 58645"></path>
          <path fill="#155bcd" d="M417.276 175.807q3.616 0 3.616 3.5v1q0 2.2-1.756 2.5 1.757.3 1.756 2.5v1q0 3.5-3.616 3.5h-5.683V175.82Zm-3.616 2v4h3.616a1.348 1.348 0 0 0 1.55-1.5v-1a1.348 1.348 0 0 0-1.55-1.5Zm0 5.995v4h3.616a1.348 1.348 0 0 0 1.55-1.5v-1a1.348 1.348 0 0 0-1.55-1.5Z" data-name="Path 58646"></path>
        </g>
        <g data-name="Group 5356">
          <g data-name="Group 5340">
            <g data-name="Group 5338">
              <path fill="#050f64" d="M49.874 335.683a15.924 15.924 0 0 0-4.9 11.475 16.49 16.49 0 0 0 16.738 16.233h144.47v4H61.199a20.228 20.228 0 0 1 0-40.456h144.983v4H61.709a16.942 16.942 0 0 0-11.835 4.748Z" data-name="Path 58647"></path>
            </g>
            <path fill="#fff" d="M82.568 260.829a12.5 12.5 0 0 0-8.985 3.825 13.2 13.2 0 0 0-3.722 9.234 12.887 12.887 0 0 0 12.708 13.06h117.6v-26.12Z" data-name="Path 58648"></path>
            <g data-name="Group 5339">
              <path fill="#ffce47" d="M65.76 298.814a13.843 13.843 0 0 0-4.288 9.989 14.389 14.389 0 0 0 14.637 14.128h130.073v4H75.6a18.126 18.126 0 1 1 0-36.252h130.582v4H76.109a14.855 14.855 0 0 0-10.349 4.135Z" data-name="Path 58649"></path>
            </g>
            <path fill="#f05d5e" d="M83.429 260.829H206.18v-4H82.919a17.058 17.058 0 0 0 0 34.116H206.18v-4H83.429a13.321 13.321 0 0 1-13.569-13.06 12.774 12.774 0 0 1 3.975-9.234 13.793 13.793 0 0 1 9.594-3.822Z" data-name="Path 58650"></path>
            <path fill="#fff" d="M61.709 330.928a16.95 16.95 0 0 0-11.836 4.754 15.931 15.931 0 0 0-4.9 11.476 16.491 16.491 0 0 0 16.739 16.231h138.46v-32.461Z" data-name="Path 58651"></path>
            <path fill="#fff" d="M76.11 294.676a14.858 14.858 0 0 0-10.35 4.138 13.839 13.839 0 0 0-4.287 9.99 14.389 14.389 0 0 0 14.637 14.129h124.06v-28.256Z" data-name="Path 58652"></path>
          </g>
          <g data-name="Group 5355">
            <path fill="#001c33" d="m186.741 309.451 17.067.118a2.628 2.628 0 0 0-.469-1.6 2.7 2.7 0 0 0-1.7-.922 16.422 16.422 0 0 0-1.98-.128 10.485 10.485 0 0 1-4.621-1.374 15.658 15.658 0 0 0-2.215-1.228l-4.652.09a5.328 5.328 0 0 0-1.26 2.5 9.382 9.382 0 0 0-.17 2.544Z" data-name="Path 58653"></path>
            <path fill="#001c33" d="m166.709 309.377 17.066.191a2.627 2.627 0 0 0-.462-1.6 2.7 2.7 0 0 0-1.7-.929 16.365 16.365 0 0 0-1.98-.137 10.485 10.485 0 0 1-4.615-1.393 15.688 15.688 0 0 0-2.21-1.238l-4.653.07a5.331 5.331 0 0 0-1.271 2.494 9.373 9.373 0 0 0-.175 2.542Z" data-name="Path 58654"></path>
            <path fill="#001c33" d="M146.671 247.905a8.311 8.311 0 0 1 9.487-6.94h.01l34.91 3.521.1.006c.087.008.172.018.258.029l.139.014v.006a6.341 6.341 0 0 1 5.371 6.175v.01c0 .2-.006.4-.021.6v.047l-3.457 53.142-5.124-.116-3.6-47.224-28.474.2a8.3 8.3 0 0 1-2.644.018h-.018a8.311 8.311 0 0 1-6.937-9.488Z" data-name="Path 58655"></path>
            <g data-name="Group 5350">
              <g data-name="Group 5343">
                <g data-name="Group 5341">
                  <path fill="#ea8096" d="m189.923 234.634-3.143-1.615-1.382 3.439 3.367 1.058a1.554 1.554 0 1 0 1.158-2.882Z" data-name="Path 58656"></path>
                </g>
                <path fill="#fff" d="m185.36 236.707 1.753-3.955a112 112 0 0 1-12.292-7.129 41.71 41.71 0 0 1-5.239-4.261 29.117 29.117 0 0 1-4.136-4.972 37.1 37.1 0 0 1-4.85-12.029c-.5-2.183-.875-4.427-1.181-6.7l-.213-1.71-.177-1.726-.087-.863-.069-.871-.138-1.739a6.987 6.987 0 0 0-.025-.253 5.215 5.215 0 0 0-.693-2.035 5.78 5.78 0 0 0-5.542-2.826h-.015a5.5 5.5 0 0 0-3.874 2.169 5.679 5.679 0 0 0-1.047 4.425l.375 1.862.188.929.208.932c.14.621.274 1.241.42 1.861l.463 1.863c.645 2.483 1.375 4.965 2.26 7.43a54.614 54.614 0 0 0 3.229 7.274 39.633 39.633 0 0 0 4.546 6.724 36.574 36.574 0 0 0 5.862 5.538 48.282 48.282 0 0 0 6.588 4.165c2.253 1.2 4.536 2.235 6.822 3.2s4.574 1.841 6.864 2.697Z" data-name="Path 58657"></path>
                <g data-name="Group 5342">
                  <path fill="#155bcc" d="m159.065 194.623.208-.093-.033-.328-.087-.861-.206-2.606a5.953 5.953 0 0 0-.026-.262 5.415 5.415 0 0 0-.721-2.12 6.223 6.223 0 0 0-.462-.672l-.133.179a6.579 6.579 0 0 1 .41.6 5.2 5.2 0 0 1 .692 2.035c.011.084.018.17.025.254l.138 1.74.069.871.086.862Zm1.471 9.468.2-.081a70.252 70.252 0 0 1-.856-4.616l-.212.052a73.11 73.11 0 0 0 .868 4.645Zm-13.07-11.083.233.064-.169-.84a5.674 5.674 0 0 1 1.047-4.424 5.5 5.5 0 0 1 3.88-2.167h.015a5.806 5.806 0 0 1 3.321.678l.133-.174a6 6 0 0 0-3.474-.719h-.016a5.753 5.753 0 0 0-2.248.7 5.693 5.693 0 0 0-1.784 1.555 5.924 5.924 0 0 0-1.088 4.591Zm8.605 24.176.167-.139a42.285 42.285 0 0 1-1.565-2.662 54.7 54.7 0 0 1-3.23-7.274c-.885-2.465-1.614-4.947-2.26-7.429l-.464-1.863c0-.013-.006-.027-.009-.039l-.2.086.463 1.865c.721 2.774 1.461 5.21 2.266 7.451a54.5 54.5 0 0 0 3.243 7.3q.755 1.404 1.59 2.704Zm10.309 10.672a50.387 50.387 0 0 0 5.186 3.144c2.022 1.074 4.195 2.093 6.84 3.2.935.392 1.9.784 2.939 1.2l-.072-.261q-1.393-.551-2.783-1.134c-2.287-.961-4.57-2-6.822-3.2a50.226 50.226 0 0 1-5.183-3.144 2.976 2.976 0 0 1-.104.195Zm10.085-1.128.059-.22q-.8-.521-1.581-1.062a41.04 41.04 0 0 1-5.211-4.239 28.27 28.27 0 0 1-5.711-7.717l-.217.049a28.474 28.474 0 0 0 5.777 7.824 41.83 41.83 0 0 0 5.238 4.261q.812.56 1.648 1.103Zm1.686 1.063c2.867 1.756 5.9 3.374 8.96 4.961l-.811 1.828.155.183.935-2.108-.179-.094c-2.821-1.464-5.953-3.121-8.958-4.962Z" data-name="Path 58658"></path>
                </g>
              </g>
              <path fill="#fff" d="M126.273 249.412c12.012 3.479 19.635-1.125 32.878-8.141 0 0-1.572-42.864-1.852-44.413a15 15 0 0 0-9.334-11.652 13.985 13.985 0 0 0-1.458-.452 14.427 14.427 0 0 0-5.351-.327q-.731.092-1.441.241a17.505 17.505 0 0 0-2.967.9 17.726 17.726 0 0 0-11.139 16.641Z" data-name="Path 58659"></path>
              <g data-name="Group 5344">
                <path fill="#155bcd" d="M148.1 184.836a14.827 14.827 0 0 0-5.121-.915 15.834 15.834 0 0 0-1.873.114c-.055.008-.106.012-.161.024l.212.369a14.369 14.369 0 0 1 5.349.326 13.065 13.065 0 0 1 1.461.451 14.832 14.832 0 0 1 9.029 10.294l.393-.063a15.153 15.153 0 0 0-9.289-10.6Zm10.333 56.814c-11.6 6.162-18.894 10.329-28.933 8.522l-.114.377a26.349 26.349 0 0 0 4.744.44c7.584 0 14.119-3.476 23.164-8.287.291-.153.754-.4 1.19-.636Zm-32.794-9.214.2 14.009.393.031-.2-14.04Zm33.033-14.068h-.386c.2 5.22.4 10.486.561 14.653l.389-.169c-.163-4.143-.359-9.335-.563-14.488Zm-.817-19.075h-.393c.1 1.862.224 4.646.365 7.913l.389.067a876.068 876.068 0 0 0-.36-7.98Zm-26.659-10.722a18.11 18.11 0 0 0-5.982 13.64l.173 12.277.393.087-.173-12.371a17.738 17.738 0 0 1 5.848-13.334Z" data-name="Path 58660"></path>
              </g>
              <g data-name="Group 5345">
                <path fill="#009539" d="M142.848 189.982q.975-.252 1.95-.509a147.868 147.868 0 0 1 5.182 42.656q-1.5 2.165-3.058 4.253-1.258-2.229-2.58-4.383a145.611 145.611 0 0 0-1.494-42.017Z" data-name="Path 58661"></path>
              </g>
              <g data-name="Group 5348">
                <g data-name="Group 5346">
                  <path fill="#f4bcc7" d="m147.15 176.814-.74 10.566a5.914 5.914 0 0 1-6.912-.471l.741-10.566Z" data-name="Path 58662"></path>
                  <path fill="#ea8096" d="m147.15 176.814-.335 4.779a5.631 5.631 0 0 1-1.572.248q-.262 0-.523-.015a6.225 6.225 0 0 1-4.68-2.648l.2-2.835Z" data-name="Path 58663"></path>
                  <path fill="#f4bcc7" d="m150.744 170.566-.671 6.185a4.938 4.938 0 0 1-4.84 4.395 5.482 5.482 0 0 1-5.182-3.4 41.658 41.658 0 0 1-1.489-4.665 7.472 7.472 0 0 1 2.125-7.467 6.048 6.048 0 0 1 10.057 4.957Z" data-name="Path 58664"></path>
                </g>
                <g fill="#001c33" data-name="Group 5347">
                  <path d="M149.617 167.2a11.568 11.568 0 0 1 .852 5.905 18.624 18.624 0 0 0 .317-6.827Z" data-name="Path 58665"></path>
                  <path d="M136.332 172.987s-3.257-5.062.325-8.852c3.861-4.085 6.349-3.6 9.018-2.835 3.376.973 5.183 2.177 6.485 1.92.7-.138 1.32-.714 1.425-.318a4.968 4.968 0 0 1-1.739 4.431c-1.987 1.705-4.533 1.4-7.017.069s-3.669-1.191-4.745.333c-1.141 1.618.33 4.619.33 4.619l-.775.267s-2.884-1.739-3.307.366Z" data-name="Path 58666"></path>
                </g>
                <path fill="#f4bcc7" d="M141.242 172.702a2.614 2.614 0 1 1-2.429-2.472 2.468 2.468 0 0 1 2.429 2.472Z" data-name="Path 58667"></path>
              </g>
              <g data-name="Group 5349">
                <path fill="#155bcc" d="m136.747 185.565 5.334 8.2 1.744-4.028 4.037 3.3.1-7.827a12.4 12.4 0 0 0-1.373-.432l-2.9 3.169-4.035-3.262a16.809 16.809 0 0 0-2.907.88Z" data-name="Path 58668"></path>
              </g>
            </g>
            <path fill="#001c33" d="M126.404 247.819a8.311 8.311 0 0 1 9.645-6.719h.009l34.728 4.315h.049c.149.014.3.034.441.058l.094.012a6.342 6.342 0 0 1 5.224 6.159v.01c0 .2-.007.4-.023.6v.047l-2.893 52.211-5.9-.206-3.407-46.343-28.59-.462a8.3 8.3 0 0 1-2.644-.043h-.009a8.311 8.311 0 0 1-6.724-9.639Z" data-name="Path 58669"></path>
            <path fill="#155bcc" d="M143.125 257.626v.5l20.777.336 3.407 46.336 6.837.236.945-17.043-.492-.082-.92 16.613-5.906-.206-3.407-46.344Zm33.446-5.317-.552 9.953h.5l.555-10.005c.007-.1.012-.2.017-.3l.01-.207h-.005v-.107a6.839 6.839 0 0 0-5.2-6.551v-.037l-.562-.074a8.253 8.253 0 0 0-.458-.06h-.04l-1.935-.242-.1.49 1.985.246.05.005c.149.012.3.032.443.057l.092.01a6.344 6.344 0 0 1 5.225 6.161v.007c0 .2-.007.4-.022.6l-.005.047Z" data-name="Path 58670"></path>
            <g data-name="Group 5353">
              <g data-name="Group 5351">
                <path fill="#f4bcc7" d="m173.373 240.166-3.227-1.438-1.189 3.511 3.42.869a1.553 1.553 0 1 0 1-2.941Z" data-name="Path 58671"></path>
              </g>
              <path fill="#fff" d="m168.932 242.49 1.53-4.046a112.077 112.077 0 0 1-12.669-6.435 41.7 41.7 0 0 1-5.467-3.964 29.1 29.1 0 0 1-4.406-4.735 37.094 37.094 0 0 1-5.511-11.741c-.618-2.152-1.119-4.372-1.552-6.622l-.308-1.7-.272-1.714-.135-.856-.117-.866-.234-1.729a5.484 5.484 0 0 0-.039-.252 5.212 5.212 0 0 0-.805-1.993 5.78 5.78 0 0 0-5.69-2.513h-.014a5.5 5.5 0 0 0-3.755 2.38 5.679 5.679 0 0 0-.8 4.476l.477 1.838.239.918.26.919c.175.612.343 1.224.523 1.835l.566 1.834c.782 2.443 1.648 4.88 2.669 7.292a54.542 54.542 0 0 0 3.629 7.084 39.665 39.665 0 0 0 4.912 6.461 36.585 36.585 0 0 0 6.161 5.2 48.313 48.313 0 0 0 6.809 3.792c2.316 1.069 4.653 1.979 6.989 2.812s4.676 1.596 7.01 2.325Z" data-name="Path 58672"></path>
              <g data-name="Group 5352">
                <path fill="#155bcc" d="m140.343 201.932.2-.1-.051-.325-.135-.855-.35-2.59a7.4 7.4 0 0 0-.04-.26 5.42 5.42 0 0 0-.838-2.077 6.22 6.22 0 0 0-.5-.646l-.123.187a6.538 6.538 0 0 1 .443.58 5.2 5.2 0 0 1 .8 1.993c.016.083.028.169.039.252l.235 1.729.117.865.134.856Zm1.995 9.371.2-.092c-.4-1.4-.763-2.91-1.111-4.562l-.208.064a67.81 67.81 0 0 0 1.116 4.59Zm-13.665-10.34.236.051-.215-.829a5.675 5.675 0 0 1 .8-4.476 5.5 5.5 0 0 1 3.754-2.38h.015a5.807 5.807 0 0 1 3.353.493l.123-.181a6 6 0 0 0-3.509-.525h-.015a5.715 5.715 0 0 0-3.9 2.473 5.923 5.923 0 0 0-.831 4.644Zm9.936 23.661.159-.148c-.6-.839-1.174-1.7-1.711-2.571a54.753 54.753 0 0 1-3.629-7.083c-1.021-2.412-1.887-4.849-2.669-7.292l-.567-1.835c0-.013-.007-.026-.012-.038l-.2.1.566 1.836c.874 2.729 1.749 5.121 2.677 7.313a54.476 54.476 0 0 0 3.644 7.112q.832 1.35 1.738 2.605Zm10.886 10.083a50.425 50.425 0 0 0 5.353 2.851c2.079.96 4.305 1.857 7.007 2.82.955.34 1.937.677 3 1.031l-.087-.256q-1.421-.473-2.841-.978c-2.337-.833-4.674-1.742-6.989-2.812a50.22 50.22 0 0 1-5.35-2.852l-.097.195Zm10.007-1.687.047-.223q-.831-.476-1.638-.972a41.049 41.049 0 0 1-5.439-3.943 28.258 28.258 0 0 1-6.131-7.388l-.214.061a28.488 28.488 0 0 0 6.2 7.49 41.783 41.783 0 0 0 5.467 3.963q.84.518 1.705 1.011Zm1.743.968c2.959 1.594 6.078 3.041 9.222 4.456l-.708 1.871.165.174.816-2.158-.184-.084c-2.9-1.305-6.117-2.785-9.22-4.456Z" data-name="Path 58673"></path>
              </g>
            </g>
            <g data-name="Group 5354" transform="translate(149.166 218.447)">
              <path fill="#155bcc" d="m0 25.796.073-1.675 49.896 2.182-.074 1.676z" data-name="Rectangle 1081"></path>
              <path fill="#155bcc" d="m49.969 26.303-30.99-1.356L29.661-.004l30.99 1.356Z" data-name="Path 58674"></path>
              <ellipse cx="4.851" cy="1.796" fill="#fff" data-name="Ellipse 168" rx="4.851" ry="1.796" transform="rotate(-73.875 31.034 -14.832)"></ellipse>
            </g>
          </g>
        </g>
        <g data-name="Group 5374">
          <g data-name="Group 5357" transform="translate(452.412 206.512)">
            <circle cx="80.437" cy="80.437" r="80.437" fill="#155bcd" data-name="Ellipse 169"></circle>
          </g>
          <g data-name="Group 5358" transform="translate(467.167 221.267)">
            <circle cx="65.683" cy="65.683" r="65.683" fill="#fff" data-name="Ellipse 170"></circle>
          </g>
          <g data-name="Group 5359">
            <path fill="#001c33" d="M531.58 224.916h2.538v10.471h-2.538z" data-name="Rectangle 1082"></path>
          </g>
          <g data-name="Group 5360">
            <path fill="#009539" d="M532.849 289.677a2.729 2.729 0 0 1-2.56-3.665l18.648-50.954a2.727 2.727 0 1 1 5.122 1.875l-18.649 50.954a2.729 2.729 0 0 1-2.561 1.79Z" data-name="Path 58675"></path>
          </g>
          <g data-name="Group 5361">
            <path fill="#009539" d="M570.209 315.179a2.717 2.717 0 0 1-1.535-.475l-37.362-25.5a2.727 2.727 0 0 1 3.075-4.505l37.362 25.5a2.727 2.727 0 0 1-1.54 4.98Z" data-name="Path 58676"></path>
          </g>
          <g data-name="Group 5362" transform="translate(525.71 279.81)">
            <circle cx="7.139" cy="7.139" r="7.139" fill="#00822e" data-name="Ellipse 171"></circle>
          </g>
          <g data-name="Group 5363">
            <path fill="#001c33" d="M470.816 288.218v-2.538h10.471v2.538z" data-name="Rectangle 1083"></path>
          </g>
          <g data-name="Group 5364">
            <path fill="#001c33" d="M534.118 348.983h-2.538v-10.471h2.538z" data-name="Rectangle 1084"></path>
          </g>
          <g data-name="Group 5365">
            <path fill="#001c33" d="M594.883 285.68v2.538h-10.471v-2.538z" data-name="Rectangle 1085"></path>
          </g>
          <g data-name="Group 5366">
            <path fill="#e5e6eb" d="M501.833 233.227a1.309 1.309 0 0 0-.479 1.788l1.785 3.091a1.309 1.309 0 0 0 2.267-1.309l-1.785-3.092a1.309 1.309 0 0 0-1.788-.478Z" data-name="Path 58677"></path>
          </g>
          <g data-name="Group 5367">
            <path fill="#e5e6eb" d="M479.127 255.933a1.309 1.309 0 0 0 .479 1.788l3.092 1.785a1.309 1.309 0 0 0 1.309-2.267l-3.092-1.785a1.309 1.309 0 0 0-1.788.479Z" data-name="Path 58678"></path>
          </g>
          <g data-name="Group 5368">
            <path fill="#e5e6eb" d="M479.127 317.967a1.309 1.309 0 0 0 1.788.479l3.092-1.785a1.309 1.309 0 0 0-1.309-2.267l-3.092 1.785a1.309 1.309 0 0 0-.479 1.788Z" data-name="Path 58679"></path>
          </g>
          <g data-name="Group 5369">
            <path fill="#e5e6eb" d="M501.833 340.672a1.309 1.309 0 0 0 1.788-.479l1.785-3.092a1.309 1.309 0 1 0-2.267-1.309l-1.785 3.091a1.309 1.309 0 0 0 .479 1.789Z" data-name="Path 58680"></path>
          </g>
          <g data-name="Group 5370">
            <path fill="#e5e6eb" d="M563.866 340.672a1.309 1.309 0 0 0 .479-1.788l-1.785-3.091a1.309 1.309 0 1 0-2.267 1.309l1.785 3.092a1.309 1.309 0 0 0 1.788.478Z" data-name="Path 58681"></path>
          </g>
          <g data-name="Group 5371">
            <path fill="#e5e6eb" d="M586.572 317.967a1.309 1.309 0 0 0-.479-1.788l-3.092-1.785a1.309 1.309 0 0 0-1.309 2.267l3.095 1.784a1.309 1.309 0 0 0 1.785-.478Z" data-name="Path 58682"></path>
          </g>
          <g data-name="Group 5372">
            <path fill="#e5e6eb" d="M586.572 255.933a1.309 1.309 0 0 0-1.788-.479l-3.091 1.785a1.309 1.309 0 0 0 1.309 2.267l3.092-1.785a1.308 1.308 0 0 0 .478-1.788Z" data-name="Path 58683"></path>
          </g>
          <g data-name="Group 5373">
            <path fill="#e5e6eb" d="M563.866 233.227a1.309 1.309 0 0 0-1.788.479l-1.785 3.092a1.309 1.309 0 0 0 2.267 1.309l1.785-3.091a1.309 1.309 0 0 0-.479-1.789Z" data-name="Path 58684"></path>
          </g>
        </g>
      </g>
    </g>
  </g>
</svg>
